{
	"asset":{
		"generator":"Khronos glTF Blender I/O v3.6.27",
		"version":"2.0"
	},
	"scene":0,
	"scenes":[
		{
			"name":"Scene",
			"nodes":[
				6,
				8
			]
		}
	],
	"nodes":[
		{
			"mesh":0,
			"name":"parede norte"
		},
		{
			"mesh":1,
			"name":"parede norte.001"
		},
		{
			"mesh":2,
			"name":"parede norte.002"
		},
		{
			"mesh":3,
			"name":"parede oeste"
		},
		{
			"mesh":4,
			"name":"parede oeste.001"
		},
		{
			"mesh":5,
			"name":"parede oeste.002"
		},
		{
			"children":[
				0,
				1,
				2,
				3,
				4,
				5
			],
			"mesh":6,
			"name":"estrutura_interna"
		},
		{
			"mesh":7,
			"name":"png de fora"
		},
		{
			"children":[
				7
			],
			"mesh":8,
			"name":"chao_externo"
		}
	],
	"materials":[
		{
			"doubleSided":true,
			"emissiveFactor":[
				1,
				1,
				1
			],
			"emissiveTexture":{
				"index":0
			},
			"name":"Parede",
			"pbrMetallicRoughness":{
				"baseColorFactor":[
					0,
					0,
					0,
					1
				]
			}
		},
		{
			"alphaMode":"BLEND",
			"doubleSided":true,
			"name":"vidro",
			"pbrMetallicRoughness":{
				"baseColorFactor":[
					0.1689988225698471,
					0.5947760343551636,
					0.8000000715255737,
					0.4227272868156433
				],
				"metallicFactor":0,
				"roughnessFactor":0.5
			}
		},
		{
			"doubleSided":true,
			"emissiveFactor":[
				1,
				1,
				1
			],
			"emissiveTexture":{
				"index":1
			},
			"name":"parede madeira",
			"pbrMetallicRoughness":{
				"baseColorFactor":[
					0,
					0,
					0,
					1
				]
			}
		},
		{
			"doubleSided":true,
			"emissiveFactor":[
				1,
				1,
				1
			],
			"emissiveTexture":{
				"index":2
			},
			"name":"Parede2",
			"pbrMetallicRoughness":{
				"baseColorFactor":[
					0,
					0,
					0,
					1
				]
			}
		},
		{
			"doubleSided":true,
			"emissiveFactor":[
				1,
				1,
				1
			],
			"emissiveTexture":{
				"index":3
			},
			"name":"Material",
			"pbrMetallicRoughness":{
				"baseColorFactor":[
					0,
					0,
					0,
					1
				]
			}
		}
	],
	"meshes":[
		{
			"name":"Cube.003",
			"primitives":[
				{
					"attributes":{
						"POSITION":0,
						"NORMAL":1,
						"TEXCOORD_0":2
					},
					"indices":3,
					"material":0
				}
			]
		},
		{
			"name":"Cube.004",
			"primitives":[
				{
					"attributes":{
						"POSITION":4,
						"NORMAL":5,
						"TEXCOORD_0":6
					},
					"indices":7,
					"material":1
				}
			]
		},
		{
			"name":"Cube.005",
			"primitives":[
				{
					"attributes":{
						"POSITION":8,
						"NORMAL":9,
						"TEXCOORD_0":10
					},
					"indices":11,
					"material":2
				}
			]
		},
		{
			"name":"Cube.002",
			"primitives":[
				{
					"attributes":{
						"POSITION":12,
						"NORMAL":13,
						"TEXCOORD_0":14
					},
					"indices":15,
					"material":3
				}
			]
		},
		{
			"name":"Cube.050",
			"primitives":[
				{
					"attributes":{
						"POSITION":16,
						"NORMAL":17,
						"TEXCOORD_0":18
					},
					"indices":19,
					"material":1
				}
			]
		},
		{
			"name":"Cube.006",
			"primitives":[
				{
					"attributes":{
						"POSITION":20,
						"NORMAL":21,
						"TEXCOORD_0":22
					},
					"indices":23,
					"material":2
				}
			]
		},
		{
			"name":"Cube",
			"primitives":[
				{
					"attributes":{
						"POSITION":24,
						"NORMAL":25,
						"TEXCOORD_0":26
					},
					"indices":27,
					"material":4
				}
			]
		},
		{
			"name":"Cube.046",
			"primitives":[
				{
					"attributes":{
						"POSITION":28,
						"NORMAL":29,
						"TEXCOORD_0":30
					},
					"indices":27,
					"material":0
				}
			]
		},
		{
			"name":"Cube.047",
			"primitives":[
				{
					"attributes":{
						"POSITION":31,
						"NORMAL":32,
						"TEXCOORD_0":33
					},
					"indices":27,
					"material":4
				}
			]
		}
	],
	"textures":[
		{
			"sampler":0,
			"source":0
		},
		{
			"sampler":0,
			"source":1
		},
		{
			"sampler":0,
			"source":2
		},
		{
			"sampler":0,
			"source":3
		}
	],
	"images":[
		{
			"bufferView":4,
			"mimeType":"image/png",
			"name":"tex_madeira"
		},
		{
			"bufferView":13,
			"mimeType":"image/png",
			"name":"tex_parede.psd"
		},
		{
			"bufferView":18,
			"mimeType":"image/png",
			"name":"tex_parede2"
		},
		{
			"bufferView":31,
			"mimeType":"image/png",
			"name":"Chao_01"
		}
	],
	"accessors":[
		{
			"bufferView":0,
			"componentType":5126,
			"count":12,
			"max":[
				8.21656608581543,
				8.25500774383545,
				-14.572088241577148
			],
			"min":[
				-8.21656608581543,
				1.5806705951690674,
				-14.572088241577148
			],
			"type":"VEC3"
		},
		{
			"bufferView":1,
			"componentType":5126,
			"count":12,
			"type":"VEC3"
		},
		{
			"bufferView":2,
			"componentType":5126,
			"count":12,
			"type":"VEC2"
		},
		{
			"bufferView":3,
			"componentType":5123,
			"count":30,
			"type":"SCALAR"
		},
		{
			"bufferView":5,
			"componentType":5126,
			"count":8,
			"max":[
				6.562046051025391,
				3.7412705421447754,
				-15.625075340270996
			],
			"min":[
				3.6179966926574707,
				0,
				-15.625075340270996
			],
			"type":"VEC3"
		},
		{
			"bufferView":6,
			"componentType":5126,
			"count":8,
			"type":"VEC3"
		},
		{
			"bufferView":7,
			"componentType":5126,
			"count":8,
			"type":"VEC2"
		},
		{
			"bufferView":8,
			"componentType":5123,
			"count":12,
			"type":"SCALAR"
		},
		{
			"bufferView":9,
			"componentType":5126,
			"count":82,
			"max":[
				8.21656608581543,
				4.072044849395752,
				-14.301616668701172
			],
			"min":[
				-8.21656608581543,
				0,
				-15.755345344543457
			],
			"type":"VEC3"
		},
		{
			"bufferView":10,
			"componentType":5126,
			"count":82,
			"type":"VEC3"
		},
		{
			"bufferView":11,
			"componentType":5126,
			"count":82,
			"type":"VEC2"
		},
		{
			"bufferView":12,
			"componentType":5123,
			"count":162,
			"type":"SCALAR"
		},
		{
			"bufferView":14,
			"componentType":5126,
			"count":30,
			"max":[
				8.722616195678711,
				8.25500774383545,
				19.319995880126953
			],
			"min":[
				7.946093559265137,
				0,
				-14.572089195251465
			],
			"type":"VEC3"
		},
		{
			"bufferView":15,
			"componentType":5126,
			"count":30,
			"type":"VEC3"
		},
		{
			"bufferView":16,
			"componentType":5126,
			"count":30,
			"type":"VEC2"
		},
		{
			"bufferView":17,
			"componentType":5123,
			"count":54,
			"type":"SCALAR"
		},
		{
			"bufferView":19,
			"componentType":5126,
			"count":4,
			"max":[
				8.722616195678711,
				6.361854553222656,
				1.2727051973342896
			],
			"min":[
				8.722616195678711,
				1.5806705951690674,
				-12.710558891296387
			],
			"type":"VEC3"
		},
		{
			"bufferView":20,
			"componentType":5126,
			"count":4,
			"type":"VEC3"
		},
		{
			"bufferView":21,
			"componentType":5126,
			"count":4,
			"type":"VEC2"
		},
		{
			"bufferView":22,
			"componentType":5123,
			"count":6,
			"type":"SCALAR"
		},
		{
			"bufferView":23,
			"componentType":5126,
			"count":16,
			"max":[
				8.722616195678711,
				1.5806705951690674,
				19.319995880126953
			],
			"min":[
				7.946093559265137,
				0,
				-14.572089195251465
			],
			"type":"VEC3"
		},
		{
			"bufferView":24,
			"componentType":5126,
			"count":16,
			"type":"VEC3"
		},
		{
			"bufferView":25,
			"componentType":5126,
			"count":16,
			"type":"VEC2"
		},
		{
			"bufferView":26,
			"componentType":5123,
			"count":36,
			"type":"SCALAR"
		},
		{
			"bufferView":27,
			"componentType":5126,
			"count":4,
			"max":[
				8.21656608581543,
				0,
				19.319995880126953
			],
			"min":[
				-8.21656608581543,
				0,
				-18.762989044189453
			],
			"type":"VEC3"
		},
		{
			"bufferView":28,
			"componentType":5126,
			"count":4,
			"type":"VEC3"
		},
		{
			"bufferView":29,
			"componentType":5126,
			"count":4,
			"type":"VEC2"
		},
		{
			"bufferView":30,
			"componentType":5123,
			"count":6,
			"type":"SCALAR"
		},
		{
			"bufferView":32,
			"componentType":5126,
			"count":4,
			"max":[
				16.911481857299805,
				8.25500774383545,
				19.319995880126953
			],
			"min":[
				16.911481857299805,
				0,
				-53.44049835205078
			],
			"type":"VEC3"
		},
		{
			"bufferView":33,
			"componentType":5126,
			"count":4,
			"type":"VEC3"
		},
		{
			"bufferView":34,
			"componentType":5126,
			"count":4,
			"type":"VEC2"
		},
		{
			"bufferView":35,
			"componentType":5126,
			"count":4,
			"max":[
				16.911481857299805,
				0,
				19.319995880126953
			],
			"min":[
				8.21656608581543,
				0,
				-53.44049835205078
			],
			"type":"VEC3"
		},
		{
			"bufferView":36,
			"componentType":5126,
			"count":4,
			"type":"VEC3"
		},
		{
			"bufferView":37,
			"componentType":5126,
			"count":4,
			"type":"VEC2"
		}
	],
	"bufferViews":[
		{
			"buffer":0,
			"byteLength":144,
			"byteOffset":0,
			"target":34962
		},
		{
			"buffer":0,
			"byteLength":144,
			"byteOffset":144,
			"target":34962
		},
		{
			"buffer":0,
			"byteLength":96,
			"byteOffset":288,
			"target":34962
		},
		{
			"buffer":0,
			"byteLength":60,
			"byteOffset":384,
			"target":34963
		},
		{
			"buffer":0,
			"byteLength":564794,
			"byteOffset":444
		},
		{
			"buffer":0,
			"byteLength":96,
			"byteOffset":565240,
			"target":34962
		},
		{
			"buffer":0,
			"byteLength":96,
			"byteOffset":565336,
			"target":34962
		},
		{
			"buffer":0,
			"byteLength":64,
			"byteOffset":565432,
			"target":34962
		},
		{
			"buffer":0,
			"byteLength":24,
			"byteOffset":565496,
			"target":34963
		},
		{
			"buffer":0,
			"byteLength":984,
			"byteOffset":565520,
			"target":34962
		},
		{
			"buffer":0,
			"byteLength":984,
			"byteOffset":566504,
			"target":34962
		},
		{
			"buffer":0,
			"byteLength":656,
			"byteOffset":567488,
			"target":34962
		},
		{
			"buffer":0,
			"byteLength":324,
			"byteOffset":568144,
			"target":34963
		},
		{
			"buffer":0,
			"byteLength":357773,
			"byteOffset":568468
		},
		{
			"buffer":0,
			"byteLength":360,
			"byteOffset":926244,
			"target":34962
		},
		{
			"buffer":0,
			"byteLength":360,
			"byteOffset":926604,
			"target":34962
		},
		{
			"buffer":0,
			"byteLength":240,
			"byteOffset":926964,
			"target":34962
		},
		{
			"buffer":0,
			"byteLength":108,
			"byteOffset":927204,
			"target":34963
		},
		{
			"buffer":0,
			"byteLength":47421,
			"byteOffset":927312
		},
		{
			"buffer":0,
			"byteLength":48,
			"byteOffset":974736,
			"target":34962
		},
		{
			"buffer":0,
			"byteLength":48,
			"byteOffset":974784,
			"target":34962
		},
		{
			"buffer":0,
			"byteLength":32,
			"byteOffset":974832,
			"target":34962
		},
		{
			"buffer":0,
			"byteLength":12,
			"byteOffset":974864,
			"target":34963
		},
		{
			"buffer":0,
			"byteLength":192,
			"byteOffset":974876,
			"target":34962
		},
		{
			"buffer":0,
			"byteLength":192,
			"byteOffset":975068,
			"target":34962
		},
		{
			"buffer":0,
			"byteLength":128,
			"byteOffset":975260,
			"target":34962
		},
		{
			"buffer":0,
			"byteLength":72,
			"byteOffset":975388,
			"target":34963
		},
		{
			"buffer":0,
			"byteLength":48,
			"byteOffset":975460,
			"target":34962
		},
		{
			"buffer":0,
			"byteLength":48,
			"byteOffset":975508,
			"target":34962
		},
		{
			"buffer":0,
			"byteLength":32,
			"byteOffset":975556,
			"target":34962
		},
		{
			"buffer":0,
			"byteLength":12,
			"byteOffset":975588,
			"target":34963
		},
		{
			"buffer":0,
			"byteLength":64168,
			"byteOffset":975600
		},
		{
			"buffer":0,
			"byteLength":48,
			"byteOffset":1039768,
			"target":34962
		},
		{
			"buffer":0,
			"byteLength":48,
			"byteOffset":1039816,
			"target":34962
		},
		{
			"buffer":0,
			"byteLength":32,
			"byteOffset":1039864,
			"target":34962
		},
		{
			"buffer":0,
			"byteLength":48,
			"byteOffset":1039896,
			"target":34962
		},
		{
			"buffer":0,
			"byteLength":48,
			"byteOffset":1039944,
			"target":34962
		},
		{
			"buffer":0,
			"byteLength":32,
			"byteOffset":1039992,
			"target":34962
		}
	],
	"samplers":[
		{
			"magFilter":9729,
			"minFilter":9987
		}
	],
	"buffers":[
		{
			"byteLength":1040024,
			"uri":"data:application/octet-stream;base64,"
		}
	]
}
