{
	"asset":{
		"generator":"Khronos glTF Blender I/O v3.6.27",
		"version":"2.0"
	},
	"scene":0,
	"scenes":[
		{
			"name":"Scene",
			"nodes":[
				0
			]
		}
	],
	"nodes":[
		{
			"mesh":0,
			"name":"aparelho"
		}
	],
	"materials":[
		{
			"doubleSided":true,
			"name":"cafeteira",
			"pbrMetallicRoughness":{
				"baseColorTexture":{
					"index":0
				},
				"metallicFactor":0
			}
		}
	],
	"meshes":[
		{
			"name":"Cube.001",
			"primitives":[
				{
					"attributes":{
						"POSITION":0,
						"NORMAL":1,
						"TEXCOORD_0":2
					},
					"indices":3,
					"material":0
				}
			]
		}
	],
	"textures":[
		{
			"sampler":0,
			"source":0
		}
	],
	"images":[
		{
			"bufferView":4,
			"mimeType":"image/png",
			"name":"tex-cafeteira"
		}
	],
	"accessors":[
		{
			"bufferView":0,
			"componentType":5126,
			"count":203,
			"max":[
				0.14074145257472992,
				0.5159743428230286,
				0.1666909009218216
			],
			"min":[
				-0.14074145257472992,
				0.0013683140277862549,
				-0.17351560294628143
			],
			"type":"VEC3"
		},
		{
			"bufferView":1,
			"componentType":5126,
			"count":203,
			"type":"VEC3"
		},
		{
			"bufferView":2,
			"componentType":5126,
			"count":203,
			"type":"VEC2"
		},
		{
			"bufferView":3,
			"componentType":5123,
			"count":786,
			"type":"SCALAR"
		}
	],
	"bufferViews":[
		{
			"buffer":0,
			"byteLength":2436,
			"byteOffset":0,
			"target":34962
		},
		{
			"buffer":0,
			"byteLength":2436,
			"byteOffset":2436,
			"target":34962
		},
		{
			"buffer":0,
			"byteLength":1624,
			"byteOffset":4872,
			"target":34962
		},
		{
			"buffer":0,
			"byteLength":1572,
			"byteOffset":6496,
			"target":34963
		},
		{
			"buffer":0,
			"byteLength":7449,
			"byteOffset":8068
		}
	],
	"samplers":[
		{
			"magFilter":9729,
			"minFilter":9987
		}
	],
	"buffers":[
		{
			"byteLength":15520,
			"uri":"data:application/octet-stream;base64,"
		}
	]
}
