<?xml version="1.0" encoding="UTF-8" standalone="no"?>
<!-- Created with Inkscape (http://www.inkscape.org/) -->

<svg
   width="16"
   height="16"
   viewBox="0 0 4.2333333 4.2333335"
   version="1.1"
   id="svg1"
   xml:space="preserve"
   inkscape:version="1.3.2 (091e20ef0f, 2023-11-25, custom)"
   sodipodi:docname="icon.svg"
   xmlns:inkscape="http://www.inkscape.org/namespaces/inkscape"
   xmlns:sodipodi="http://sodipodi.sourceforge.net/DTD/sodipodi-0.dtd"
   xmlns="http://www.w3.org/2000/svg"
   xmlns:svg="http://www.w3.org/2000/svg"><sodipodi:namedview
     id="namedview1"
     pagecolor="#ffffff"
     bordercolor="#666666"
     borderopacity="1.0"
     inkscape:showpageshadow="2"
     inkscape:pageopacity="0.0"
     inkscape:pagecheckerboard="0"
     inkscape:deskcolor="#d1d1d1"
     inkscape:document-units="mm"
     inkscape:zoom="22.720314"
     inkscape:cx="2.1126469"
     inkscape:cy="8.8687155"
     inkscape:window-width="1920"
     inkscape:window-height="1001"
     inkscape:window-x="0"
     inkscape:window-y="0"
     inkscape:window-maximized="1"
     inkscape:current-layer="layer1" /><defs
     id="defs1" /><g
     inkscape:label="Camada 1"
     inkscape:groupmode="layer"
     id="layer1"><path
       id="path1"
       style="fill:#e0e0e0;stroke-width:10.2452;stroke-linecap:round;stroke-linejoin:bevel"
       d="M 2.1166667,0.12809756 A 1.9884721,1.9884719 0 0 0 1.9274808,0.14150999 C 1.883999,0.3995853 1.8452038,0.64335363 1.8180636,0.85025091 A 1.3044377,1.3044375 0 0 0 1.4312209,1.0083764 C 1.2655499,0.88149844 1.0653193,0.73706308 0.85236874,0.58553195 A 1.9884721,1.9884719 0 0 0 0.58553201,0.85236866 C 0.73706295,1.0653193 0.88149845,1.26555 1.0083765,1.4312208 A 1.3044377,1.3044375 0 0 0 0.85025098,1.8180635 C 0.6433536,1.8452035 0.39958522,1.883999 0.14150996,1.9274806 a 1.9884721,1.9884719 0 0 0 -0.0134124,0.1891859 1.9884721,1.9884719 0 0 0 0.0134124,0.1891858 c 0.25807526,0.043482 0.50184364,0.082277 0.70874102,0.1094172 A 1.3044377,1.3044375 0 0 0 1.0083765,2.8021121 C 0.88149845,2.9677829 0.73706295,3.1680135 0.58553201,3.3809643 A 1.9884721,1.9884719 0 0 0 0.85236874,3.6478011 C 1.0653193,3.4962699 1.2655499,3.3518346 1.4312209,3.2249566 a 1.3044377,1.3044375 0 0 0 0.3868427,0.1581256 c 0.02714,0.2068972 0.065935,0.4506655 0.1094172,0.7087407 a 1.9884721,1.9884719 0 0 0 0.1891859,0.013413 1.9884721,1.9884719 0 0 0 0.1891858,-0.013413 C 2.349334,3.8337477 2.3881296,3.5899794 2.4152697,3.3830822 A 1.3044377,1.3044375 0 0 0 2.8021124,3.2249566 c 0.1656708,0.126878 0.3659014,0.2713133 0.5788522,0.4228445 A 1.9884721,1.9884719 0 0 0 3.6478014,3.3809643 C 3.4962702,3.1680135 3.3518348,2.9677829 3.2249569,2.8021121 A 1.3044377,1.3044375 0 0 0 3.3830824,2.4152695 C 3.5899797,2.3881295 3.8337481,2.349334 4.0918232,2.3058523 a 1.9884721,1.9884719 0 0 0 0.013412,-0.1891858 1.9884721,1.9884719 0 0 0 -0.00918,-0.18848 C 3.8374527,1.8845985 3.5934133,1.8453403 3.385906,1.8180635 A 1.3044377,1.3044375 0 0 0 3.2256628,1.4298091 C 3.3527798,1.2637523 3.4974071,1.0636051 3.6492131,0.85025091 A 1.9884721,1.9884719 0 0 0 3.3830824,0.58412011 C 3.169728,0.73592621 2.9695807,0.88055349 2.8035242,1.0076705 A 1.3044377,1.3044375 0 0 0 2.4152697,0.84742724 C 2.3879929,0.63992 2.3487349,0.39588061 2.3051465,0.1372745 a 1.9884721,1.9884719 0 0 0 -0.1884798,-0.009177 z m 0,1.38006824 A 0.6082734,0.60827335 0 0 1 2.7251673,2.1166665 0.6082734,0.60827335 0 0 1 2.1166667,2.7251671 0.6082734,0.60827335 0 0 1 1.5081659,2.1166665 0.6082734,0.60827335 0 0 1 2.1166667,1.5081658 Z" /></g></svg>
