{
	"asset":{
		"generator":"Khronos glTF Blender I/O v3.6.27",
		"version":"2.0"
	},
	"extensionsUsed":[
		"KHR_materials_specular",
		"KHR_materials_ior"
	],
	"scene":0,
	"scenes":[
		{
			"name":"Scene",
			"nodes":[
				0,
				1,
				2
			]
		}
	],
	"nodes":[
		{
			"mesh":0,
			"name":"Plane.001",
			"scale":[
				4.228833198547363,
				4.228833198547363,
				4.228833198547363
			]
		},
		{
			"mesh":1,
			"name":"Plane.002",
			"scale":[
				4.228833198547363,
				4.228833198547363,
				4.228833198547363
			],
			"translation":[
				-0.03292468190193176,
				-0.003982208669185638,
				-0.06916151940822601
			]
		},
		{
			"mesh":2,
			"name":"dipositivo",
			"scale":[
				0.1985463798046112,
				0.05964254215359688,
				0.10647749900817871
			],
			"translation":[
				0,
				0.031073302030563354,
				0
			]
		}
	],
	"materials":[
		{
			"alphaMode":"BLEND",
			"doubleSided":true,
			"emissiveFactor":[
				0,
				0.8568907976150513,
				1
			],
			"name":"cardapio borda",
			"pbrMetallicRoughness":{
				"baseColorFactor":[
					0,
					0.694742739200592,
					0.8000000715255737,
					1
				],
				"baseColorTexture":{
					"index":0
				},
				"metallicFactor":0,
				"roughnessFactor":0.5
			}
		},
		{
			"alphaMode":"BLEND",
			"doubleSided":true,
			"emissiveFactor":[
				0,
				0.9407297968864441,
				1
			],
			"name":"grafico blur",
			"pbrMetallicRoughness":{
				"baseColorFactor":[
					0,
					0.48238587379455566,
					0.8000000715255737,
					1
				],
				"baseColorTexture":{
					"index":1
				},
				"metallicFactor":0,
				"roughnessFactor":0.5
			}
		},
		{
			"doubleSided":true,
			"extensions":{
				"KHR_materials_specular":{
					"specularColorFactor":[
						0,
						0,
						0
					]
				},
				"KHR_materials_ior":{
					"ior":1.4500000476837158
				}
			},
			"name":"Material",
			"pbrMetallicRoughness":{
				"baseColorTexture":{
					"index":2
				},
				"metallicFactor":0
			}
		}
	],
	"meshes":[
		{
			"name":"Plane.001",
			"primitives":[
				{
					"attributes":{
						"POSITION":0,
						"NORMAL":1,
						"TEXCOORD_0":2
					},
					"indices":3,
					"material":0
				}
			]
		},
		{
			"name":"Plane.003",
			"primitives":[
				{
					"attributes":{
						"POSITION":4,
						"NORMAL":5,
						"TEXCOORD_0":6
					},
					"indices":3,
					"material":1
				}
			]
		},
		{
			"name":"Cube",
			"primitives":[
				{
					"attributes":{
						"POSITION":7,
						"NORMAL":8,
						"TEXCOORD_0":9
					},
					"indices":10,
					"material":2
				}
			]
		}
	],
	"textures":[
		{
			"sampler":0,
			"source":0
		},
		{
			"sampler":0,
			"source":1
		},
		{
			"sampler":0,
			"source":2
		}
	],
	"images":[
		{
			"bufferView":4,
			"mimeType":"image/png",
			"name":"tex-grafico-alpha"
		},
		{
			"bufferView":8,
			"mimeType":"image/png",
			"name":"tex-grafico-alpha - blur"
		},
		{
			"bufferView":13,
			"mimeType":"image/png",
			"name":"tex-grafico"
		}
	],
	"accessors":[
		{
			"bufferView":0,
			"componentType":5126,
			"count":4,
			"max":[
				0.14401018619537354,
				0.2918400466442108,
				0.002060375176370144
			],
			"min":[
				-0.15468794107437134,
				0.05990006774663925,
				-0.028114430606365204
			],
			"type":"VEC3"
		},
		{
			"bufferView":1,
			"componentType":5126,
			"count":4,
			"type":"VEC3"
		},
		{
			"bufferView":2,
			"componentType":5126,
			"count":4,
			"type":"VEC2"
		},
		{
			"bufferView":3,
			"componentType":5123,
			"count":6,
			"type":"SCALAR"
		},
		{
			"bufferView":5,
			"componentType":5126,
			"count":4,
			"max":[
				0.18790167570114136,
				0.33950090408325195,
				0.0026883373502641916
			],
			"min":[
				-0.2018337994813919,
				0.03687015920877457,
				-0.036683160811662674
			],
			"type":"VEC3"
		},
		{
			"bufferView":6,
			"componentType":5126,
			"count":4,
			"type":"VEC3"
		},
		{
			"bufferView":7,
			"componentType":5126,
			"count":4,
			"type":"VEC2"
		},
		{
			"bufferView":9,
			"componentType":5126,
			"count":32,
			"max":[
				1.2788022756576538,
				1.0000001192092896,
				1
			],
			"min":[
				-1.2788022756576538,
				-1.0000001192092896,
				-1
			],
			"type":"VEC3"
		},
		{
			"bufferView":10,
			"componentType":5126,
			"count":32,
			"type":"VEC3"
		},
		{
			"bufferView":11,
			"componentType":5126,
			"count":32,
			"type":"VEC2"
		},
		{
			"bufferView":12,
			"componentType":5123,
			"count":48,
			"type":"SCALAR"
		}
	],
	"bufferViews":[
		{
			"buffer":0,
			"byteLength":48,
			"byteOffset":0,
			"target":34962
		},
		{
			"buffer":0,
			"byteLength":48,
			"byteOffset":48,
			"target":34962
		},
		{
			"buffer":0,
			"byteLength":32,
			"byteOffset":96,
			"target":34962
		},
		{
			"buffer":0,
			"byteLength":12,
			"byteOffset":128,
			"target":34963
		},
		{
			"buffer":0,
			"byteLength":71300,
			"byteOffset":140
		},
		{
			"buffer":0,
			"byteLength":48,
			"byteOffset":71440,
			"target":34962
		},
		{
			"buffer":0,
			"byteLength":48,
			"byteOffset":71488,
			"target":34962
		},
		{
			"buffer":0,
			"byteLength":32,
			"byteOffset":71536,
			"target":34962
		},
		{
			"buffer":0,
			"byteLength":74778,
			"byteOffset":71568
		},
		{
			"buffer":0,
			"byteLength":384,
			"byteOffset":146348,
			"target":34962
		},
		{
			"buffer":0,
			"byteLength":384,
			"byteOffset":146732,
			"target":34962
		},
		{
			"buffer":0,
			"byteLength":256,
			"byteOffset":147116,
			"target":34962
		},
		{
			"buffer":0,
			"byteLength":96,
			"byteOffset":147372,
			"target":34963
		},
		{
			"buffer":0,
			"byteLength":3553,
			"byteOffset":147468
		}
	],
	"samplers":[
		{
			"magFilter":9729,
			"minFilter":9987
		}
	],
	"buffers":[
		{
			"byteLength":151024,
			"uri":"data:application/octet-stream;base64,"
		}
	]
}
